<?xml version="1.0" encoding="utf-8"?><!-- Uploaded to: SVG Repo, www.svgrepo.com, Generator: SVG Repo Mixer Tools -->
<svg width="800px" height="800px" viewBox="0 0 24 24" fill="none" xmlns="http://www.w3.org/2000/svg">
<path fill-rule="evenodd" clip-rule="evenodd" d="M 19.8 3.9 C 20.1 3.8 20.4 3.7 20.6 3.6 C 20.9 3.5 21.1 3.4 21.4 3.1 C 21.8 2.9 22.1 2.9 22.5 3.1 C 22.8 3.2 23 3.6 23 3.9 C 23 5 22.9 5.9 22.6 6.7 C 22.3 7.4 21.9 7.9 21.5 8.4 C 21.3 11.7 20.3 14.4 18.8 16.4 C 17.3 18.4 15.2 19.8 13.1 20.5 C 10.9 21.3 8.6 21.4 6.6 21.2 C 4.6 20.9 2.7 20.3 1.4 19.2 C 1 19 0.9 18.5 1.1 18.1 C 1.3 17.6 1.7 17.4 2.1 17.5 C 3.4 17.6 4.7 17.4 5.7 16.9 C 5.5 16.8 5.3 16.7 5.1 16.6 C 4.2 15.9 3.4 15.1 3.1 14.4 C 3 14.1 3 13.8 3.1 13.5 C 3.2 13.4 3.3 13.2 3.4 13.1 C 2 12 1.5 10.5 1.5 9.4 C 1.5 9.1 1.6 8.9 1.9 8.7 C 2 8.6 2.1 8.5 2.2 8.5 C 2.1 8.2 2 7.9 2 7.6 C 1.7 6.3 1.7 4.9 2 3.7 C 2.1 3.3 2.5 3 2.9 3 C 3.3 2.9 3.7 3.1 3.9 3.5 C 4.9 5.3 6.9 6.5 8.8 7.1 C 9.7 7.5 10.5 7.7 11.1 7.8 C 11.2 6.6 11.5 5.6 12.1 4.8 C 12.7 3.7 13.7 3.1 14.7 2.8 C 16.5 2.3 18.5 2.9 19.8 3.9 Z M 10.7 9.8 C 10.1 9.6 9.1 9.4 8.1 9 C 6.7 8.5 5.2 7.7 3.8 6.5 C 3.9 6.8 3.9 7 3.9 7.2 C 4.2 8.3 4.6 8.9 4.9 9.1 C 5.4 9.3 5.6 9.8 5.4 10.3 C 5.2 10.9 4.6 11 4 10.9 C 4.5 11.5 5.3 12.2 6.7 12.5 C 7.1 12.5 7.5 13 7.5 13.4 C 7.5 13.9 7.2 14.3 6.7 14.4 L 5.8 14.6 C 6 14.7 6.1 14.8 6.3 14.9 C 7 15.4 7.7 15.6 8.3 15.5 C 8.7 15.4 9.2 15.6 9.4 16 C 9.6 16.4 9.5 16.9 9.1 17.2 C 8.5 17.8 7.7 18.2 7 18.5 C 6.6 18.7 6.2 18.9 5.8 19 C 6.1 19.1 6.5 19.1 6.8 19.2 C 8.6 19.4 10.6 19.3 12.4 18.6 C 14.3 18 16 16.9 17.2 15.2 C 18.5 13.5 19.4 11.1 19.5 7.9 C 19.5 7.7 19.6 7.4 19.8 7.2 C 20.2 6.8 20.6 6.3 20.8 5.7 C 20.5 5.8 20.1 5.9 19.7 5.9 C 19.4 6 19 5.9 18.8 5.7 C 18 4.9 16.5 4.4 15.3 4.7 C 14.7 4.9 14.1 5.2 13.7 5.8 C 13.3 6.5 13 7.5 13 8.9 C 13 9.2 12.9 9.5 12.7 9.7 C 12.2 10.1 11.3 9.9 10.7 9.8 Z" fill="#0f0f0f"/>
</svg>